<?xml version="1.0" standalone="no"?>
<!DOCTYPE svg PUBLIC "-//W3C//DTD SVG 20010904//EN"
 "http://www.w3.org/TR/2001/REC-SVG-20010904/DTD/svg10.dtd">
<svg version="1.0" xmlns="http://www.w3.org/2000/svg"
 width="700.000000pt" height="700.000000pt" viewBox="0 0 700.000000 700.000000"
 preserveAspectRatio="xMidYMid meet">
<metadata>
Created by potrace 1.15, written by Peter Selinger 2001-2017
</metadata>
<g transform="translate(0.000000,700.000000) scale(0.100000,-0.100000)"
fill="#000000" stroke="none">
<path d="M5700 6299 c-8 -12 -27 -35 -42 -53 -15 -17 -28 -34 -28 -38 0 -5 -9
-8 -20 -8 -14 0 -20 -7 -20 -21 0 -11 -12 -34 -27 -50 -28 -29 -28 -29 -150
-29 -112 0 -124 2 -135 20 -7 11 -18 20 -25 20 -17 0 -17 -47 0 -53 6 -2 -145
-6 -336 -9 -236 -4 -352 -9 -360 -17 -13 -13 -77 -15 -77 -2 0 5 11 19 25 32
23 22 34 59 18 59 -11 0 -87 -54 -96 -67 -4 -7 -12 -13 -18 -13 -5 0 2 12 16
27 24 27 33 57 17 66 -13 9 -47 -27 -67 -69 -22 -46 -42 -54 -137 -54 -36 0
-48 -4 -48 -15 0 -11 11 -15 38 -16 l37 -1 -45 -20 c-25 -11 -47 -23 -50 -27
-3 -3 -19 -13 -35 -22 -17 -8 -51 -28 -77 -43 -27 -15 -48 -23 -48 -17 0 6 4
11 9 11 10 0 25 49 18 57 -11 10 -77 -10 -77 -23 0 -8 -4 -14 -10 -14 -5 0
-10 -6 -10 -13 0 -17 -24 -49 -78 -104 -37 -37 -48 -43 -85 -43 -40 0 -67 -13
-67 -32 0 -4 15 -8 34 -8 43 0 54 -16 27 -38 -48 -40 -66 -52 -78 -52 -7 0
-13 -9 -13 -20 0 -22 20 -26 50 -10 15 8 17 6 13 -10 -3 -11 -9 -20 -14 -20
-5 0 -9 -6 -9 -14 0 -7 -7 -19 -15 -26 -8 -7 -12 -16 -9 -21 3 -5 2 -9 -3 -9
-4 0 -18 -22 -31 -50 -13 -27 -27 -50 -32 -50 -4 0 -11 -13 -15 -30 -4 -16
-11 -30 -16 -30 -5 0 -9 -6 -9 -14 0 -7 -7 -19 -15 -26 -8 -7 -12 -16 -9 -21
3 -5 1 -9 -3 -9 -5 0 -14 -12 -20 -27 -14 -31 -34 -65 -45 -73 -3 -3 -10 -18
-13 -33 -4 -15 -10 -27 -14 -27 -3 0 -12 -15 -20 -32 -8 -18 -17 -35 -20 -38
-3 -3 -17 -26 -31 -52 -13 -27 -28 -48 -32 -48 -3 0 -9 -8 -11 -17 -3 -10 -5
-4 -6 13 0 17 -8 38 -17 45 -15 12 -16 32 -10 171 5 129 4 158 -7 158 -18 0
-34 559 -17 570 6 4 23 5 37 2 18 -3 24 -1 19 7 -5 8 13 11 63 11 55 0 71 3
71 14 0 8 3 21 6 30 5 14 -2 15 -54 10 -33 -4 -80 -4 -104 0 l-44 7 1 82 c0
79 -1 82 -22 81 -13 0 -23 5 -23 12 0 14 -38 30 -47 20 -3 -3 -8 -39 -11 -81
-3 -46 -9 -75 -16 -75 -6 0 -4 -5 4 -11 11 -7 -34 -8 -153 -4 -204 8 -839 -4
-831 -16 3 -5 -20 -9 -50 -9 -56 0 -56 0 -56 30 0 17 -4 30 -10 30 -6 0 -10
30 -10 71 0 66 -1 71 -20 66 -13 -3 -20 0 -20 10 0 10 -9 13 -28 11 -26 -3
-27 -5 -30 -72 -2 -39 2 -74 8 -80 12 -12 14 -136 2 -136 -5 0 -14 -16 -22
-35 -8 -19 -16 -35 -20 -35 -3 0 -14 -13 -23 -30 -25 -41 -45 -60 -67 -60 -18
0 -22 11 -37 98 -11 64 -43 23 -43 -57 0 -54 -17 -81 -52 -81 -20 0 -20 -2
-13 -637 4 -351 12 -639 16 -641 13 -5 12 -642 -1 -642 -5 0 -10 -11 -10 -25
0 -15 6 -25 14 -25 12 0 14 -30 15 -162 1 -90 6 -176 11 -193 5 -16 14 -167
20 -335 5 -168 16 -384 24 -480 8 -96 15 -237 15 -312 1 -75 5 -139 9 -142 5
-3 12 -258 15 -568 4 -368 10 -564 17 -566 12 -4 14 -72 2 -72 -5 0 -18 -8
-30 -18 -45 -37 -66 -52 -74 -52 -4 0 -8 -9 -8 -20 0 -25 6 -25 54 1 36 19 40
20 49 4 8 -14 11 -15 18 -4 6 9 9 -2 9 -33 0 -26 4 -50 10 -53 5 -3 10 -21 10
-40 0 -43 9 -65 25 -65 15 0 32 99 21 125 -3 9 0 15 9 15 9 0 15 9 15 23 0 21
3 22 62 19 35 -1 206 -6 381 -10 253 -6 320 -10 326 -21 5 -8 18 -12 29 -9 13
4 23 0 26 -8 6 -16 46 -19 46 -4 0 6 5 10 11 10 8 0 8 -4 1 -13 -6 -7 -9 -23
-5 -35 10 -40 102 -25 148 24 17 18 33 22 113 23 106 2 124 7 120 29 -2 13
-16 15 -66 13 -61 -2 -63 -2 -52 18 6 12 15 21 19 21 5 0 12 11 15 24 7 27 96
126 114 126 7 0 12 -17 12 -44 0 -31 5 -46 16 -50 23 -9 24 -8 25 22 l1 27 7
-25 c4 -15 15 -26 28 -28 20 -3 21 -1 15 154 l-5 157 32 27 c30 27 42 60 21
60 -5 0 -10 10 -10 21 0 19 -4 21 -30 16 l-30 -6 -1 292 c0 160 -4 342 -7 404
-4 61 -4 109 1 106 4 -2 7 -11 7 -19 0 -8 4 -14 9 -14 5 0 12 -13 16 -30 4
-16 10 -30 15 -30 5 0 11 -14 15 -30 4 -17 10 -30 15 -30 4 0 13 -22 20 -50 7
-27 16 -50 20 -50 4 0 11 -16 15 -36 3 -20 10 -44 15 -53 5 -9 19 -38 30 -66
12 -27 28 -63 35 -80 7 -16 17 -42 20 -57 4 -16 11 -28 15 -28 4 0 11 -16 14
-35 4 -19 11 -35 16 -35 4 0 11 -14 15 -30 4 -17 11 -30 16 -30 5 0 9 -6 9
-12 0 -7 13 -39 29 -70 16 -31 27 -59 25 -61 -3 -2 2 -10 11 -17 8 -7 15 -19
15 -26 0 -8 4 -14 9 -14 5 0 12 -14 16 -30 4 -17 10 -30 15 -30 5 0 11 -13 15
-29 3 -16 13 -32 21 -35 8 -3 14 -12 14 -21 0 -8 4 -15 9 -15 5 0 11 -8 14
-17 8 -24 39 -76 52 -86 6 -4 -9 -4 -32 -1 -39 6 -43 5 -43 -15 0 -11 -6 -21
-14 -21 -13 0 -26 -20 -26 -41 0 -5 27 -9 60 -9 49 0 58 -3 54 -15 -4 -9 0
-15 9 -15 10 0 13 -8 9 -25 -5 -31 10 -32 37 -4 16 18 20 19 28 5 7 -12 43
-16 211 -19 133 -3 207 -8 215 -16 17 -17 287 -14 310 3 9 7 17 16 17 20 0 3
-62 7 -137 7 -76 1 -151 5 -168 9 -37 9 448 13 536 3 71 -7 57 -21 -23 -22
-80 -1 -56 -40 25 -41 24 0 27 -4 27 -31 0 -29 2 -31 26 -25 15 4 34 15 43 24
9 10 13 13 9 8 -14 -17 -9 -46 7 -46 16 0 105 83 105 98 0 5 15 17 33 26 17 8
25 16 17 16 -9 0 -11 3 -5 8 6 4 22 23 35 42 33 49 178 185 227 213 14 9 18 6
73 -62 27 -33 80 -44 80 -16 0 8 -8 15 -17 16 -11 0 -13 3 -5 6 17 7 15 38 -3
53 -8 7 -15 17 -15 22 0 5 -7 16 -15 24 -20 21 -20 23 20 68 39 43 44 61 16
53 -14 -3 -18 -1 -14 9 3 8 9 14 14 14 5 0 9 9 9 20 0 21 -16 25 -57 14 -13
-4 -21 -10 -18 -14 3 -5 -8 -11 -25 -15 -16 -4 -30 -11 -30 -16 0 -17 -19 -9
-25 12 -4 11 -20 33 -36 48 -16 16 -29 31 -29 34 0 4 -42 48 -92 99 -51 52
-115 120 -141 153 -63 78 -108 133 -127 154 -8 9 -33 41 -54 71 -22 30 -48 63
-58 73 -10 10 -18 22 -18 27 0 5 -14 24 -30 42 -17 18 -33 43 -36 56 -4 12
-10 22 -14 22 -4 0 -27 28 -51 63 -24 34 -47 64 -51 65 -4 2 -8 10 -8 18 0 8
-7 17 -15 20 -8 4 -15 11 -15 18 0 6 -9 19 -20 29 -11 9 -20 24 -20 32 0 8 -4
15 -9 15 -5 0 -28 29 -52 65 -24 36 -47 65 -51 65 -5 0 -8 5 -8 10 0 11 -60
99 -88 129 -31 34 -52 65 -52 78 0 7 -4 13 -8 13 -10 0 -92 117 -92 131 0 5
-4 9 -10 9 -5 0 -12 11 -16 24 -3 14 -12 27 -20 30 -8 3 -14 12 -14 21 0 8 -5
15 -11 15 -5 0 -15 14 -20 30 -6 17 -15 30 -20 30 -5 0 -9 7 -9 15 0 9 -7 18
-15 21 -8 4 -15 10 -15 15 0 4 -11 24 -24 44 -14 20 -23 42 -20 50 6 15 -36
115 -48 115 -5 0 -8 6 -8 13 0 8 -9 24 -20 37 -11 13 -20 29 -20 35 0 7 -7 15
-15 19 -8 3 -15 12 -15 21 0 8 -4 15 -9 15 -5 0 -14 14 -21 30 -7 17 -16 30
-21 30 -5 0 -9 7 -9 15 0 9 -7 18 -15 21 -16 7 -21 34 -6 34 5 0 13 10 17 22
3 12 22 42 40 68 19 26 34 50 34 54 0 4 5 12 10 19 41 48 50 62 50 74 0 7 7
16 15 19 8 4 15 10 15 15 0 12 42 73 53 77 4 2 7 10 7 18 0 8 7 17 15 20 8 4
15 11 15 17 0 6 18 37 40 68 22 32 40 62 40 68 0 6 5 11 10 11 6 0 10 7 10 15
0 9 6 18 14 21 8 3 17 16 20 30 4 13 11 24 16 24 6 0 10 5 10 11 0 6 11 25 25
43 14 18 25 38 25 44 0 7 4 12 9 12 5 0 12 11 15 25 4 14 11 25 16 25 6 0 10
7 10 15 0 9 7 18 15 21 8 4 15 12 15 19 0 7 7 18 15 25 8 7 12 16 9 21 -3 5 0
9 5 9 6 0 11 5 11 10 0 12 41 73 53 78 4 2 7 10 7 17 0 8 6 18 13 22 11 8 32
40 59 93 7 14 17 30 23 37 5 7 16 19 23 27 6 8 12 20 12 26 0 6 7 13 15 16 8
4 15 12 15 18 0 7 18 38 40 70 22 31 40 61 40 66 0 6 4 10 10 10 5 0 12 11 16
25 3 14 10 25 15 25 5 0 14 11 19 25 5 14 14 25 19 25 5 0 12 11 15 25 4 14
11 25 16 25 6 0 10 7 10 15 0 9 7 18 15 21 8 4 15 13 15 20 0 8 7 17 15 20 8
4 15 11 15 17 0 14 111 177 121 177 4 0 9 10 13 23 3 12 19 37 35 54 16 18 32
42 36 53 3 11 17 23 30 26 13 3 27 15 30 25 4 10 11 19 16 19 5 0 9 6 9 13 0
6 18 38 40 70 22 31 40 62 40 67 0 6 4 10 10 10 5 0 12 11 16 25 3 14 10 25
15 25 5 0 14 11 19 25 5 14 14 25 20 25 5 0 10 6 10 13 0 6 14 26 30 44 17 18
30 37 30 43 0 7 9 23 20 37 11 14 20 32 20 39 0 9 13 14 38 14 36 0 62 14 62
32 0 4 -13 8 -30 8 -34 0 -41 19 -10 27 11 3 20 9 20 14 0 5 9 9 20 9 11 0 20
-4 20 -10 0 -5 24 -10 54 -10 l53 0 6 37 c4 20 4 39 2 42 -3 2 -30 6 -60 9
l-56 5 18 26 c30 46 83 152 83 167 0 21 -34 17 -50 -7z m-740 -386 c-215 -2
-358 -7 -364 -13 -6 -6 -27 -10 -47 -10 -65 0 -99 -11 -99 -31 0 -15 8 -19 43
-20 36 -1 38 -2 17 -9 -14 -4 -51 -8 -82 -9 -61 -1 -75 -16 -44 -47 15 -15 61
-20 52 -5 -7 11 528 25 643 16 50 -4 89 -10 86 -14 -4 -3 -102 -11 -218 -18
-283 -15 -571 -43 -575 -54 -2 -5 -14 -9 -27 -9 -57 0 -85 -12 -85 -36 l0 -24
308 0 c284 -1 558 -12 570 -25 13 -12 -13 -17 -112 -22 -58 -3 -106 -9 -106
-13 0 -5 -72 -11 -160 -15 -88 -4 -160 -11 -160 -15 0 -4 -47 -10 -105 -13
-107 -6 -135 -17 -135 -51 0 -19 26 -22 32 -4 5 13 116 26 236 27 39 1 72 5
72 10 0 5 77 12 170 16 94 4 170 11 170 15 0 4 25 10 55 13 56 6 85 23 85 52
0 8 -8 18 -17 21 -10 3 -27 11 -38 17 -14 8 -130 13 -375 16 -354 3 -426 14
-193 27 65 4 123 10 128 14 6 5 89 11 185 15 96 3 186 10 200 15 14 5 69 11
123 14 83 6 97 4 97 -9 0 -8 -4 -15 -10 -15 -5 0 -10 -7 -10 -15 0 -9 -7 -18
-15 -21 -8 -4 -15 -12 -15 -19 0 -6 -35 -61 -77 -121 -43 -60 -91 -130 -108
-154 -39 -58 -46 -68 -67 -88 -10 -9 -18 -20 -18 -25 0 -4 -5 -13 -10 -20 -45
-53 -60 -73 -60 -80 0 -5 -7 -15 -15 -23 -8 -8 -45 -60 -82 -115 -37 -56 -78
-112 -90 -125 -13 -14 -23 -28 -23 -33 0 -6 -60 -93 -88 -126 -4 -5 -11 -18
-15 -27 -3 -10 -11 -18 -17 -18 -5 0 -10 -4 -10 -9 0 -14 -52 -91 -62 -91 -4
0 -8 -6 -8 -13 0 -12 -9 -26 -50 -74 -5 -7 -10 -15 -10 -18 0 -3 -17 -29 -37
-58 -20 -28 -52 -74 -70 -102 -17 -27 -37 -56 -43 -62 -6 -7 -15 -24 -20 -38
-5 -14 -14 -25 -20 -25 -5 0 -10 -6 -10 -14 0 -8 -6 -21 -13 -28 -7 -7 -24
-31 -37 -53 -13 -22 -27 -42 -30 -45 -4 -3 -13 -18 -21 -35 -30 -59 -44 -82
-83 -129 -13 -16 -30 -41 -38 -55 -7 -14 -15 -28 -18 -31 -18 -17 -60 -80 -60
-89 0 -6 -4 -11 -9 -11 -5 0 -13 -10 -17 -22 -4 -13 -10 -25 -13 -28 -17 -13
-61 -92 -61 -108 0 -27 -11 -34 -29 -18 -9 7 -33 17 -54 20 l-38 7 7 -48 c4
-26 13 -57 20 -68 23 -36 21 -86 -3 -111 -16 -15 -16 -17 0 -29 9 -7 17 -22
17 -33 0 -18 5 -21 28 -18 15 2 22 1 15 -1 -8 -3 6 -30 37 -74 28 -38 50 -74
50 -79 0 -6 4 -10 10 -10 5 0 12 -11 16 -24 3 -14 12 -27 20 -30 8 -3 14 -12
14 -21 0 -8 4 -15 9 -15 5 0 14 -13 21 -30 7 -16 16 -30 21 -30 5 0 9 -6 9
-13 0 -7 18 -38 41 -68 22 -30 44 -61 49 -69 7 -12 13 -13 27 -4 20 12 28 6
67 -46 19 -24 19 -24 -10 3 -17 15 -33 27 -37 27 -13 0 -7 -38 8 -54 8 -8 15
-19 15 -25 0 -6 9 -11 20 -11 11 0 20 -7 20 -15 0 -8 4 -15 9 -15 4 0 21 -19
37 -42 38 -57 46 -66 67 -86 9 -9 17 -22 17 -29 0 -7 4 -13 9 -13 5 0 28 -29
51 -65 23 -36 46 -65 51 -65 5 0 9 -7 9 -15 0 -9 7 -18 15 -21 8 -3 17 -15 21
-27 4 -12 20 -32 35 -46 16 -14 29 -31 29 -39 0 -7 7 -15 15 -18 8 -3 17 -15
21 -26 3 -11 13 -28 22 -38 42 -43 71 -82 77 -100 7 -22 35 -28 35 -8 0 7 8 1
17 -12 9 -14 23 -29 30 -33 7 -4 13 -23 13 -42 0 -18 7 -40 15 -49 8 -8 15
-18 15 -23 0 -5 8 -16 18 -25 27 -25 52 -61 52 -75 0 -7 5 -13 10 -13 6 0 13
-7 17 -16 3 -9 20 -31 38 -48 17 -17 40 -46 50 -64 11 -18 24 -32 30 -32 5 0
20 -18 33 -40 12 -22 27 -40 32 -40 6 0 10 -7 10 -15 0 -8 7 -15 15 -15 8 0
15 -5 15 -12 0 -6 10 -23 23 -36 l22 -25 -45 6 c-25 4 -70 10 -100 13 -30 4
-59 10 -65 14 -5 4 -43 11 -83 15 -39 4 -75 11 -78 16 -9 15 -84 11 -84 -5 0
-14 41 -26 89 -26 14 0 33 -5 41 -11 11 -8 -25 -9 -127 -4 -78 3 -218 3 -312
-1 -157 -6 -171 -9 -171 -26 0 -10 7 -18 15 -18 8 0 15 -4 15 -9 0 -5 32 -12
71 -16 118 -12 136 -23 42 -26 -164 -6 -168 -6 -167 14 1 9 -2 17 -6 17 -5 0
-11 13 -15 30 -4 16 -10 30 -15 30 -5 0 -11 13 -15 30 -4 16 -10 30 -15 30 -5
0 -11 13 -15 30 -4 16 -11 30 -16 30 -5 0 -11 11 -15 25 -3 14 -9 25 -14 25
-4 0 -14 17 -23 38 -17 38 -37 73 -48 82 -4 3 -10 16 -14 30 -4 14 -10 27 -14
30 -10 8 -29 42 -62 110 -17 36 -35 67 -39 70 -3 3 -17 28 -31 55 -13 28 -29
56 -36 63 -7 7 -10 25 -6 42 5 25 2 30 -15 30 -15 0 -22 9 -27 30 -4 17 -11
30 -16 30 -5 0 -9 6 -9 14 0 7 -9 24 -19 37 -13 16 -17 34 -14 52 4 21 2 27
-13 27 -13 0 -28 19 -47 58 -32 66 -80 155 -87 162 -3 3 -18 32 -35 65 -16 33
-33 62 -37 63 -5 2 -8 10 -8 17 0 8 -6 20 -12 27 -7 7 -24 36 -38 63 -26 50
-34 63 -60 94 -8 10 -26 33 -39 52 -14 19 -30 38 -38 42 -7 4 -13 15 -13 22 0
8 -4 15 -9 15 -5 0 -5 16 0 38 5 20 6 56 3 80 -6 37 -10 43 -28 40 -13 -2 -22
-12 -24 -26 -2 -13 -10 -26 -18 -29 -12 -4 -14 -78 -16 -467 0 -253 -3 -445
-5 -426 -3 19 -9 39 -14 45 -5 5 -9 17 -9 27 0 10 -4 18 -10 18 -12 0 -12 2 1
-155 7 -71 16 -134 20 -140 12 -13 11 -45 -1 -45 -6 0 -10 -30 -10 -70 0 -68
1 -70 25 -70 24 0 25 -3 25 -55 0 -30 -4 -55 -10 -55 -5 0 -10 4 -10 9 0 5
-28 12 -62 16 -35 3 -73 11 -86 17 -16 9 -25 9 -34 0 -18 -18 12 -38 72 -46
30 -4 65 -10 78 -13 30 -7 28 -33 -3 -33 -14 0 -25 -4 -25 -10 0 -5 -9 -10
-20 -10 -11 0 -20 -7 -20 -15 0 -11 12 -15 45 -15 35 0 45 -4 45 -16 0 -9 9
-18 20 -21 11 -3 20 -13 19 -22 0 -10 -2 -11 -6 -3 -11 29 -25 9 -21 -33 l3
-45 -85 7 c-47 3 -87 9 -90 13 -3 4 -86 11 -185 15 -99 4 -182 10 -185 15 -3
4 -52 10 -110 14 -58 4 -121 11 -140 15 -34 8 -33 8 25 15 143 18 159 22 163
35 4 11 -13 13 -97 7 -56 -4 -115 -14 -131 -23 -34 -16 -42 -53 -12 -53 10 0
22 -4 28 -9 5 -5 27 -11 49 -14 36 -3 35 -4 -12 -5 -28 -1 -53 -6 -55 -10 -1
-5 -26 -12 -54 -15 l-52 -6 -7 177 c-4 97 -10 182 -14 187 -3 6 -11 93 -18
195 -6 102 -14 214 -16 250 -22 318 -26 409 -27 573 0 103 -4 187 -9 187 -4 0
-12 186 -16 413 -4 226 -11 420 -16 430 -6 10 -12 266 -15 590 -4 357 -10 577
-16 584 -6 7 -7 33 -4 60 10 69 10 115 1 141 -7 20 -4 22 24 22 17 0 39 4 49
10 16 9 278 25 602 36 74 3 160 2 190 -2 l55 -8 -50 -7 c-27 -4 -78 -8 -112
-8 -35 -1 -63 -5 -63 -10 0 -4 -48 -11 -107 -15 -59 -4 -112 -11 -118 -16 -6
-5 -48 -12 -93 -16 -45 -4 -82 -10 -82 -14 0 -4 -31 -11 -70 -14 -38 -4 -72
-11 -75 -17 -4 -5 -16 -9 -28 -9 -41 0 -97 -21 -97 -36 0 -11 9 -13 43 -8 23
4 44 10 47 15 3 4 32 10 65 14 33 3 69 10 80 15 25 11 163 30 215 30 22 0 40
4 40 9 0 5 48 12 107 16 59 4 114 11 122 16 9 4 55 11 104 14 61 5 87 11 87
20 0 7 8 16 18 20 16 6 16 7 -2 21 -16 11 -69 14 -265 15 -262 0 -299 13 -77
25 70 4 126 10 126 14 0 4 61 11 135 15 74 4 138 11 141 16 3 5 20 9 38 9 l33
0 6 -67 c4 -38 7 -102 7 -145 0 -51 4 -78 12 -80 10 -4 13 -140 16 -589 1
-357 6 -587 12 -593 7 -7 10 -6 10 2 0 7 7 12 16 12 12 0 14 9 12 38 -2 29 3
43 25 65 15 16 27 33 27 39 0 6 11 21 25 34 14 13 25 29 25 37 0 8 7 20 15 27
8 7 12 16 9 21 -3 5 -1 9 5 9 5 0 12 14 16 30 4 17 10 30 15 30 5 0 11 14 15
30 4 17 10 30 15 30 5 0 11 14 15 30 4 17 11 30 16 30 5 0 11 11 15 25 3 14
10 25 15 25 5 0 8 3 7 8 -2 10 24 64 39 80 7 7 13 19 13 27 0 7 3 15 8 17 7 3
12 12 84 148 22 41 44 77 48 80 4 3 10 15 14 28 4 12 11 22 16 22 4 0 11 11
14 25 4 14 11 25 17 25 6 0 7 5 4 10 -3 6 -2 10 3 10 5 0 12 8 15 18 9 26 45
83 74 116 7 8 15 25 19 40 3 14 10 26 14 26 4 0 11 12 15 27 3 14 15 38 26 51
10 14 19 31 19 38 0 8 4 14 9 14 5 0 12 14 16 30 4 17 10 30 15 30 4 0 11 8
14 18 8 20 30 59 74 127 17 28 32 56 32 63 0 6 5 12 10 12 6 0 13 8 17 18 8
23 114 176 125 180 4 2 8 10 8 18 0 8 7 17 15 20 8 4 15 10 15 14 0 5 11 25
25 47 l25 38 468 1 c348 0 377 0 112 -3z m-2590 -134 c-160 -15 -180 -19 -180
-39 0 -13 9 -20 28 -23 19 -3 14 -4 -15 -6 -39 -1 -43 -3 -43 -26 0 -17 6 -25
18 -26 55 -4 258 4 262 11 3 5 91 11 195 15 105 3 213 11 240 16 30 6 90 7
150 2 l100 -8 -95 -6 c-52 -4 -132 -7 -177 -8 -46 0 -83 -5 -83 -10 0 -5 -77
-12 -170 -16 -94 -4 -172 -11 -175 -15 -3 -4 -62 -11 -132 -15 -138 -8 -163
-15 -163 -45 0 -19 7 -20 115 -20 63 0 123 4 133 10 9 5 118 15 242 21 371 19
459 21 477 11 11 -7 -34 -12 -145 -17 -89 -4 -162 -11 -162 -15 0 -4 -67 -11
-150 -15 -82 -4 -150 -11 -150 -15 0 -4 -57 -11 -127 -15 -71 -4 -132 -11
-138 -15 -5 -4 -35 -10 -66 -12 l-57 -3 -6 50 c-3 28 -6 91 -6 142 l0 92 88 4
c48 1 130 3 182 3 l95 1 -85 -8z m798 -299 c-15 -4 -109 -14 -208 -21 -99 -7
-180 -16 -180 -20 0 -3 -57 -9 -127 -13 -70 -4 -130 -11 -133 -15 -3 -5 -52
-12 -110 -16 -58 -4 -109 -10 -115 -14 -5 -3 -52 -11 -102 -16 l-93 -11 0 48
c0 47 0 48 33 49 17 0 88 5 157 10 69 5 172 13 230 18 143 10 682 11 648 1z
m-1078 -2738 c1 -107 0 -195 -2 -196 -2 -1 -32 -21 -68 -44 -36 -23 -70 -46
-77 -52 -20 -16 -23 15 -23 240 0 194 -7 258 -23 218 -3 -7 -6 1 -6 18 -1 35
10 50 62 89 20 15 37 31 37 36 0 13 -52 -1 -68 -18 -21 -20 -26 -15 -10 10 8
12 25 40 38 62 13 22 30 44 37 48 7 4 13 15 13 22 0 8 4 15 9 15 5 0 14 14 20
30 5 17 14 30 19 30 5 0 13 10 17 23 9 25 22 -241 25 -531z m1240 71 c0 -6 3
-13 8 -15 4 -1 29 -46 54 -98 43 -85 46 -95 30 -104 -9 -5 -22 -14 -28 -20 -6
-6 -22 -18 -34 -26 -12 -8 -28 -21 -36 -27 -7 -7 -15 -13 -18 -13 -3 0 -6 48
-7 108 0 59 -4 130 -8 157 -6 48 -6 50 16 50 13 0 23 -5 23 -12z m-464 -1331
c-3 -5 61 -12 142 -16 194 -9 189 -8 194 -62 l3 -44 -105 7 c-58 3 -107 9
-110 13 -3 4 -68 11 -145 14 -77 4 -141 12 -143 17 -2 5 -29 9 -60 10 -55 0
-189 18 -282 37 -43 9 -42 10 33 11 44 0 77 5 77 11 0 6 74 10 201 10 110 0
198 -4 195 -8z m-451 -73 c5 -5 29 -9 55 -9 l45 0 -29 -15 c-16 -8 -54 -15
-88 -15 -51 0 -59 -2 -56 -17 2 -12 17 -21 43 -27 82 -17 81 -23 -5 -30 -47
-4 -88 -13 -92 -19 -4 -7 -8 26 -8 71 l0 84 63 -7 c34 -4 66 -11 72 -16z
m2643 -28 c2 -7 35 -11 79 -11 73 0 77 -1 105 -32 15 -17 27 -32 25 -34 -1 -1
-33 2 -72 7 -130 18 -150 20 -310 29 -230 13 -399 30 -405 40 -3 5 -28 11 -55
13 -28 3 103 3 290 2 225 -3 341 -8 343 -14z m-1895 -57 c33 -6 37 -9 37 -36
0 -29 -2 -30 -31 -24 -17 3 -56 6 -86 6 -30 0 -52 4 -49 9 3 4 -61 11 -142 15
-138 7 -211 15 -342 36 -35 5 59 7 260 4 173 -2 332 -7 353 -10z m1622 -24
c55 -6 107 -14 115 -19 9 -5 62 -12 118 -16 56 -4 102 -11 102 -16 0 -5 22 -9
48 -9 33 0 56 -6 70 -18 20 -18 19 -18 -41 -14 -34 2 -66 8 -72 12 -5 4 -89
11 -185 15 -96 4 -179 11 -185 15 -5 4 -62 11 -125 14 -63 4 -116 11 -118 17
-2 5 -29 10 -60 10 l-57 1 70 13 c76 14 163 13 320 -5z m-2340 -225 c-18 -14
-60 -51 -156 -137 -23 -21 -49 -38 -56 -38 -8 0 -12 -4 -9 -9 9 -14 -20 -21
-86 -21 l-60 0 30 30 c24 24 39 30 71 30 23 0 41 4 41 9 0 16 -30 33 -47 27
-10 -4 -3 6 15 23 17 16 32 35 32 40 0 6 6 11 14 11 7 0 16 9 19 20 4 17 15
20 103 23 55 1 101 4 104 5 3 1 -4 -5 -15 -13z"/>
</g>
</svg>
